<?xml version="1.0" encoding="UTF-8"?>
<svg id="katman_1" data-name="katman 1" xmlns="http://www.w3.org/2000/svg" viewBox="0 0 1396.87 214.67">
  <path d="m1339.73,214.23H57.13C25.83,214.23.43,188.83.43,157.53V57.13C.43,25.83,25.83.43,57.13.43h1282.6c31.3,0,56.7,25.4,56.7,56.7v100.4c0,31.3-25.4,56.7-56.7,56.7Z" fill="#fff" stroke="#c7c6c6" stroke-miterlimit="10" stroke-width=".87"/>
  <text transform="translate(307.46 128.59)" fill="#020203" font-family="Roboto-Medium, Roboto" font-size="67.08" font-weight="500" isolation="isolate"><tspan x="0" y="0">А</tspan><tspan x="44.64" y="0" letter-spacing="0em">в</tspan><tspan x="82.47" y="0" letter-spacing="-.01em">т</tspan><tspan x="114.67" y="0" letter-spacing="0em">оризув</tspan><tspan x="334.27" y="0" letter-spacing="0em">а</tspan><tspan x="370.04" y="0" letter-spacing="0em">тися через Google</tspan></text>
  <g>
    <path d="m161.93,108.63c0-4.5-.4-7.8-1.2-11.3h-51.8v20.5h30.4c-.6,5.1-3.9,12.7-11.3,17.9l-.1.7,16.4,12.7,1.1.1c10.5-9.6,16.5-23.8,16.5-40.6" fill="#4877bb"/>
    <path d="m108.93,162.63c14.9,0,27.4-4.9,36.5-13.4l-17.4-13.5c-4.7,3.2-10.9,5.5-19.1,5.5-14.6,0-27-9.6-31.4-22.9l-.6.1-17,13.2-.2.6c9,18,27.7,30.4,49.2,30.4" fill="#21a849"/>
    <path d="m77.53,118.33c-1.2-3.4-1.8-7.1-1.8-10.9s.7-7.5,1.8-10.9v-.7l-17.2-13.4-.6.3c-3.7,7.5-5.9,15.9-5.9,24.8s2.1,17.3,5.9,24.8l17.8-14" fill="#fbba10"/>
    <path d="m108.93,73.63c10.4,0,17.3,4.5,21.3,8.2l15.6-15.2c-9.6-8.9-22-14.3-36.9-14.3-21.6,0-40.2,12.4-49.3,30.4l17.8,13.9c4.6-13.4,16.9-23,31.5-23" fill="#e73830"/>
  </g>
</svg>